<?xml version="1.0" encoding="UTF-8" standalone="no"?>
<svg
   version="1.0"
   viewBox="0 0 24 24"
   xmlns="http://www.w3.org/2000/svg"
   xmlns:svg="http://www.w3.org/2000/svg">
  <g
     transform="matrix(0.00377657,0,0,-0.00377657,-7.6863373,30.56214)"
     fill="currentColor"
     stroke="none"
     id="g3">
    <path
       d="m 5248,7972 c -9,-4 -33,-26 -53,-49 -42,-49 -70,-59 -186,-67 -270,-18 -636,-114 -925,-242 -127,-56 -129,-57 -174,-44 -25,7 -59,15 -75,17 -42,6 -82,-27 -90,-75 -13,-76 -25,-91 -129,-162 -157,-107 -260,-193 -406,-340 -142,-141 -271,-295 -367,-438 -65,-97 -82,-110 -152,-119 -48,-5 -54,-9 -72,-45 -13,-26 -17,-44 -11,-56 5,-9 15,-40 22,-69 12,-52 12,-53 -38,-161 -134,-291 -224,-633 -252,-955 -6,-65 -15,-127 -20,-137 -6,-10 -30,-33 -55,-51 -40,-29 -45,-37 -45,-72 0,-34 7,-45 54,-90 l 54,-52 7,-80 c 71.5996,-528.4965 127.0388,-696.4707 272,-1040 38,-81 40,-97 14,-163 -19,-48 -19,-51 -2,-83 16,-29 26,-35 73,-45 30,-6 61,-13 69,-16 9,-3 52,-58 97,-121 210,-298 449,-537 733,-733 120,-83 134,-99 144,-159 10,-54 27,-79 65,-95 28,-12 39,-10 94,9 l 62,22 119,-51 c 316,-136 644,-219 965,-245 100,-9 127,-20 170,-75 29,-36 36,-40 77,-40 41,0 50,4 81,40 46,54 73,66 167,74 321,28 634,107 940,238 l 140,60 68,-23 c 68,-22 69,-22 103,-4 21,11 37,28 40,44 25,114 21,108 152,203 227,162 384,302 535,476 90,104 228,286 252,333 19,35 44,49 114,63 46,9 58,16 73,43 19,31 19,33 -4,97 l -22,65 23,53 c 161,360 248,661 281,968 6,58 13,124 16,146 4,34 14,51 59,94 76,71 75,95 -4,170 l -59,55 -6,100 c -6,88 -18,180 -41,321 -11.917,57.9216 -16.6901,69.5809 -24,114 l -12,42 c -6,24 -24,83 -39,131 l -28,88 c -15.8512,48.1296 -16.7792,48.7862 -29,87 -3,10 -31,73 -61,142 -30,69 -57,140 -60,159 -2,18 3,59 13,91 17,57 17,60 -1,91 -17,29 -27,35 -81,44 -34,6 -69,18 -78,25 -10,8 -44,55 -77,105 -188,282 -485,578 -779,775 -75,51 -90,65 -98,97 -6,21 -11,46 -11,55 0,32 -13,49 -50,68 -37,19 -38,19 -94,0 -30,-11 -60,-20 -66,-20 -6,0 -58,21 -116,46 -324,141 -645,224 -973,252 l -104,9 -55,57 c -54,56 -79,66 -124,48 z m 427,-223 c 193,-28 306,-54 470,-106 457,-147 821,-369 1161,-708 445,-443 721,-992 821,-1635 28,-180 25,-625 -5,-818 -145,-921 -702,-1698 -1517,-2114 -179,-91 -311,-145 -488,-198 -541,-163 -1107,-165 -1649,-5 -962,284 -1698,1044 -1953,2017 -258,986 26,2028 750,2753 381,381 822,630 1349,760 130,32 358,69 486,79 123,9 438,-4 575,-25 z"
       id="path1"
       style="display:inline" />
    <path
       d="M 5081,7629 C 4582,7591 4070,7399 3670,7099 3315,6834 3047,6513 2851,6119 2524,5462 2474,4745 2705,4043 c 126,-382 340,-734 625,-1027 524,-539 1204,-826 1956,-826 211,0 339,11 516,46 767,149 1421,606 1822,1274 205,341 323,694 372,1110 19,171 15,491 -10,658 -126,845 -615,1567 -1351,1997 -460,268 -1017,395 -1554,354 z M 4586,5625 c 102,-19 177,-57 240,-120 65,-65 94,-138 101,-255 12,-190 -58,-325 -207,-400 l -58,-29 159,-278 c 87,-153 159,-281 159,-286 0,-4 -68,-6 -152,-5 l -152,3 -140,258 -141,257 h -102 -103 v -260 -260 h -135 -135 v 603 c 0,332 -3,645 -6,695 l -7,92 h 301 c 225,0 320,-4 378,-15 z m 1004,-72 c 308,-857 330,-916 330,-871 0,9 63,187 139,395 77,208 154,420 171,471 l 33,92 h 193 194 v -695 -695 h -135 -136 l 3,520 c 2,285 0,516 -3,512 -3,-4 -43,-110 -89,-237 -46,-126 -129,-356 -186,-510 l -102,-280 -94,-3 -94,-3 -132,358 c -73,197 -159,431 -191,520 -31,90 -59,165 -62,167 -2,2 -1,-37 3,-87 3,-51 7,-287 7,-524 l 1,-433 h -135 -135 v 695 695 h 194 194 z"
       id="path2"
       style="display:inline" />
    <path
       d="m 4190,5209 v -201 l 163,4 c 148,3 165,5 202,26 53,31 74,61 87,125 19,89 -11,170 -77,208 -42,25 -140,39 -267,39 h -108 z"
       id="path3"
       style="display:inline" />
  </g>
</svg>
